<svg xmlns="http://www.w3.org/2000/svg" width="214.031" height="129.57"><g fill="#fff" font-size="53.023" font-weight="400" letter-spacing="0" word-spacing="0" font-family="Sans"><path style="line-height:125%" d="M55.156 44.785c-3.555 0-6.888.901-9.968 2.688-3.081 1.786-5.49 4.195-7.25 7.25-1.761 3.055-2.657 6.42-2.657 10.062 0 5.437 1.908 10.141 5.688 14.094 3.78 3.952 8.505 5.906 14.218 5.906 5.455 0 10.115-1.901 13.938-5.75 3.823-3.849 5.719-8.567 5.719-14.125 0-5.61-1.938-10.35-5.813-14.25-3.875-3.9-8.49-5.875-13.875-5.875zM0 45.754v38.094h8.719c4.936 0 8.404-.317 10.406-.938 2.002-.621 3.876-1.752 5.594-3.375 1.717-1.622 3.056-3.665 4.031-6.125.975-2.46 1.469-5.16 1.469-8.094 0-4.125-.882-7.723-2.625-10.812-1.744-3.09-3.964-5.315-6.657-6.688-2.692-1.372-6.803-2.062-12.343-2.062H0zm85.344 0L78.78 83.848h7.063l4.187-24.063 8 24.063h6.375l8.125-24.063 4.063 24.063h7l-6.406-38.094h-7l-8.938 26.562-8.813-26.562h-7.093zm55.687 0l-14.687 38.094h7.531l3.094-7.844h15.562l2.969 7.844h7.531l-14.656-38.094h-7.344zm27.125 0v38.094h7.188V45.754h-7.188zm15.344 0v38.094h7.25v-25l16.313 25h6.968V45.754h-7.25v25.062l-16.344-25.062H183.5zM55.062 51.879c3.487 0 6.442 1.27 8.876 3.781 2.433 2.511 3.656 5.563 3.656 9.188 0 3.641-1.209 6.733-3.625 9.218-2.417 2.486-5.347 3.719-8.782 3.719-3.037 0-5.715-.96-8.062-2.875-3.02-2.45-4.531-5.788-4.531-10 0-3.78 1.194-6.893 3.593-9.344 2.4-2.45 5.354-3.687 8.876-3.687zm-47.843.875h2.468c4.505 0 7.776.998 9.813 3 2.261 2.226 3.375 5.367 3.375 9.406 0 2.624-.457 4.83-1.406 6.625-.95 1.795-2.164 3.053-3.657 3.813-1.493.759-3.904 1.156-7.218 1.156H7.219v-24zm137.531 3.094l5.063 13.062h-10.125l5.062-13.062zM4.065 121.233c1.122 0 2.08.393 2.874 1.178.793.786 1.19 1.74 1.19 2.861 0 1.122-.397 2.08-1.19 2.874-.794.794-1.752 1.191-2.874 1.191s-2.08-.397-2.874-1.19C.397 127.351 0 126.393 0 125.271s.397-2.075 1.19-2.86c.795-.786 1.753-1.179 2.875-1.179zM50.796 97.233l-5.074 4.842c-3.452-3.642-7.336-5.463-11.65-5.463-3.643 0-6.71 1.243-9.205 3.728-2.494 2.486-3.74 5.55-3.74 9.191 0 2.537.552 4.79 1.656 6.757 1.105 1.968 2.667 3.513 4.686 4.635 2.02 1.122 4.263 1.683 6.732 1.683 2.105 0 4.03-.393 5.773-1.178 1.743-.786 3.66-2.214 5.748-4.285l4.919 5.126c-2.814 2.744-5.472 4.647-7.974 5.709-2.503 1.061-5.36 1.592-8.57 1.592-5.92 0-10.766-1.877-14.537-5.631-3.771-3.754-5.657-8.565-5.657-14.434 0-3.797.859-7.171 2.576-10.123 1.717-2.951 4.177-5.324 7.379-7.12 3.201-1.794 6.649-2.692 10.343-2.692 3.141 0 6.166.665 9.074 1.994a21.704 21.704 0 017.521 5.67zM75.107 89.57c5.385 0 10.015 1.95 13.89 5.851 3.875 3.9 5.812 8.656 5.812 14.266 0 5.557-1.912 10.26-5.735 14.11-3.823 3.849-8.461 5.773-13.915 5.773-5.713 0-10.46-1.976-14.24-5.929-3.78-3.952-5.67-8.647-5.67-14.084 0-3.642.88-6.99 2.641-10.045 1.76-3.055 4.181-5.476 7.262-7.262 3.081-1.787 6.4-2.68 9.955-2.68zm-.078 7.094c-3.52 0-6.481 1.225-8.88 3.676-2.4 2.451-3.599 5.567-3.599 9.347 0 4.211 1.51 7.542 4.53 9.993 2.348 1.916 5.04 2.874 8.079 2.874 3.434 0 6.36-1.243 8.776-3.728 2.417-2.486 3.625-5.55 3.625-9.191 0-3.625-1.217-6.693-3.65-9.204-2.434-2.511-5.394-3.767-8.88-3.767zM105.32 90.528h7.094l8.803 26.563 8.932-26.563h6.99l6.42 38.084h-6.99l-4.09-24.052-8.104 24.052h-6.394l-8-24.052-4.169 24.052h-7.068z"/></g><g fill="#6ac045"><path d="M19.858 0c5.385 0 10.015 1.95 13.89 5.851 3.874 3.9 5.812 8.656 5.812 14.265 0 5.558-1.912 10.262-5.735 14.11C30.002 38.077 25.364 40 19.91 40c-5.713 0-10.46-1.976-14.24-5.929C1.89 30.12 0 25.424 0 19.987c0-3.642.88-6.99 2.64-10.045C4.402 6.887 6.823 4.466 9.904 2.68 12.983.893 16.302 0 19.858 0zm-.078 7.094c-3.521 0-6.481 1.225-8.88 3.676C8.5 13.221 7.3 16.337 7.3 20.116c0 4.212 1.51 7.543 4.53 9.994 2.348 1.916 5.04 2.874 8.078 2.874 3.435 0 6.36-1.243 8.777-3.728 2.416-2.486 3.625-5.55 3.625-9.191 0-3.625-1.217-6.693-3.65-9.204-2.434-2.511-5.395-3.767-8.881-3.767zM46.136.958h7.275v24.647c0 2.123.186 3.625.557 4.505.37.88.983 1.584 1.838 2.11.854.526 1.885.79 3.094.79 1.277 0 2.377-.294 3.3-.88.924-.587 1.563-1.334 1.917-2.24.353-.906.53-2.637.53-5.191V.958h7.275v22.705c0 3.832-.215 6.49-.647 7.974-.431 1.485-1.256 2.917-2.472 4.298-1.217 1.381-2.62 2.404-4.208 3.068-1.587.665-3.434.997-5.54.997-2.762 0-5.165-.634-7.21-1.903-2.046-1.269-3.508-2.856-4.389-4.764-.88-1.907-1.32-5.13-1.32-9.67zM80.854.958h7.69c4.211 0 7.21.375 8.996 1.126 1.787.751 3.224 1.998 4.311 3.741 1.087 1.743 1.631 3.806 1.631 6.188 0 2.503-.6 4.595-1.8 6.278-1.199 1.683-3.007 2.956-5.423 3.819l9.01 16.932h-7.923l-8.57-16.13h-.672v16.13h-7.25zm7.25 14.887h2.278c2.313 0 3.905-.302 4.777-.907.871-.604 1.307-1.605 1.307-3.003 0-.828-.216-1.549-.647-2.162a3.586 3.586 0 00-1.735-1.32c-.725-.267-2.054-.401-3.987-.401h-1.993z" style="line-height:125%" font-size="53.023" font-weight="400" letter-spacing="0" word-spacing="0" font-family="Sans"/><path d="M27.107 20.022a7.16 7.16 0 11-14.319 0 7.16 7.16 0 0114.319 0z"/></g></svg>