<svg xmlns="http://www.w3.org/2000/svg" width="476.45" height="40"><g font-size="53.023" font-weight="400" letter-spacing="0" word-spacing="0" fill="#fff" font-family="Sans"><path d="M111.146.958h8.595c5.54 0 9.657.686 12.35 2.058 2.692 1.372 4.91 3.603 6.653 6.693 1.744 3.09 2.615 6.697 2.615 10.822 0 2.934-.487 5.63-1.463 8.09-.975 2.46-2.321 4.5-4.038 6.123-1.718 1.623-3.578 2.745-5.58 3.366-2.002.621-5.471.932-10.407.932h-8.725zm7.223 6.99v24h3.366c3.314 0 5.717-.38 7.21-1.139 1.493-.76 2.714-2.037 3.663-3.832.95-1.795 1.424-4.004 1.424-6.628 0-4.038-1.13-7.171-3.391-9.398-2.037-2.002-5.308-3.003-9.813-3.003zM166.291 0c5.385 0 10.015 1.95 13.89 5.851 3.875 3.9 5.812 8.656 5.813 14.265 0 5.558-1.912 10.262-5.735 14.11-3.823 3.85-8.462 5.774-13.916 5.774-5.713 0-10.46-1.976-14.24-5.929-3.78-3.952-5.67-8.647-5.67-14.084 0-3.642.88-6.99 2.641-10.045 1.76-3.055 4.182-5.476 7.263-7.262C159.417.893 162.736 0 166.29 0zm-.077 7.094c-3.521 0-6.482 1.225-8.88 3.676-2.4 2.451-3.6 5.567-3.6 9.346 0 4.212 1.51 7.543 4.531 9.994 2.348 1.916 5.04 2.874 8.078 2.874 3.435 0 6.36-1.243 8.777-3.728 2.416-2.486 3.624-5.55 3.624-9.191 0-3.625-1.217-6.693-3.65-9.204-2.434-2.511-5.394-3.767-8.88-3.767zM196.505.958h7.094L212.4 27.52 221.333.958h6.99l6.421 38.084h-6.99l-4.09-24.052-8.104 24.052h-6.395l-8-24.052-4.168 24.052h-7.068zM252.168.958h7.353l14.654 38.084h-7.534l-2.978-7.845H248.13l-3.106 7.845h-7.534zm3.728 10.097l-5.074 13.074h10.123zM279.301.958h7.197v38.084h-7.197zM294.654.958h6.938l16.337 25.061V.958h7.249v38.084h-6.964l-16.311-24.984v24.984h-7.25zM336.958 31.663c1.122 0 2.08.393 2.874 1.178.794.786 1.19 1.74 1.19 2.861 0 1.122-.396 2.08-1.19 2.874-.794.794-1.752 1.191-2.874 1.191s-2.08-.397-2.874-1.19c-.794-.795-1.19-1.753-1.19-2.875s.396-2.075 1.19-2.86c.794-.786 1.752-1.179 2.874-1.179zM383.69 7.663l-5.075 4.842c-3.452-3.642-7.336-5.463-11.65-5.463-3.642 0-6.71 1.243-9.204 3.728-2.495 2.486-3.742 5.55-3.742 9.191 0 2.537.553 4.79 1.657 6.757 1.105 1.968 2.667 3.513 4.686 4.635 2.02 1.122 4.264 1.683 6.732 1.683 2.106 0 4.03-.393 5.773-1.178 1.744-.786 3.66-2.214 5.748-4.285l4.919 5.126c-2.813 2.744-5.471 4.647-7.974 5.709-2.503 1.061-5.36 1.592-8.57 1.592-5.92 0-10.766-1.877-14.537-5.631-3.771-3.754-5.657-8.565-5.657-14.434 0-3.797.859-7.171 2.576-10.123 1.718-2.951 4.177-5.324 7.379-7.12C359.953.899 363.4 0 367.094 0c3.141 0 6.166.665 9.074 1.994a21.704 21.704 0 017.521 5.67zM408 0c5.385 0 10.015 1.95 13.89 5.851 3.875 3.9 5.812 8.656 5.812 14.265 0 5.558-1.911 10.262-5.734 14.11-3.823 3.85-8.462 5.774-13.916 5.774-5.713 0-10.46-1.976-14.24-5.929-3.78-3.952-5.67-8.647-5.67-14.084 0-3.642.88-6.99 2.641-10.045 1.76-3.055 4.181-5.476 7.262-7.262C401.126.893 404.445 0 408 0zm-.078 7.094c-3.52 0-6.48 1.225-8.88 3.676-2.4 2.451-3.599 5.567-3.599 9.346 0 4.212 1.51 7.543 4.531 9.994 2.347 1.916 5.04 2.874 8.078 2.874 3.434 0 6.36-1.243 8.776-3.728 2.417-2.486 3.625-5.55 3.625-9.191 0-3.625-1.217-6.693-3.65-9.204-2.434-2.511-5.394-3.767-8.88-3.767zM438.214.958h7.093l8.803 26.563L463.042.958h6.99l6.421 38.084h-6.99l-4.09-24.052-8.104 24.052h-6.395l-8-24.052-4.168 24.052h-7.068z" style="line-height:125%"/></g><g fill="#6ac045"><path d="M19.858 0c5.385 0 10.015 1.95 13.89 5.851 3.874 3.9 5.812 8.656 5.812 14.265 0 5.558-1.912 10.262-5.735 14.11C30.002 38.077 25.364 40 19.91 40c-5.713 0-10.46-1.976-14.24-5.929C1.89 30.12 0 25.424 0 19.987c0-3.642.88-6.99 2.64-10.045C4.402 6.887 6.823 4.466 9.904 2.68 12.983.893 16.302 0 19.858 0zm-.078 7.094c-3.521 0-6.481 1.225-8.88 3.676C8.5 13.221 7.3 16.337 7.3 20.116c0 4.212 1.51 7.543 4.53 9.994 2.348 1.916 5.04 2.874 8.078 2.874 3.435 0 6.36-1.243 8.777-3.728 2.416-2.486 3.625-5.55 3.625-9.191 0-3.625-1.217-6.693-3.65-9.204-2.434-2.511-5.395-3.767-8.881-3.767zM46.136.958h7.275v24.647c0 2.123.186 3.625.557 4.505.37.88.983 1.584 1.838 2.11.854.526 1.885.79 3.094.79 1.277 0 2.377-.294 3.3-.88.924-.587 1.563-1.334 1.917-2.24.353-.906.53-2.637.53-5.191V.958h7.275v22.705c0 3.832-.215 6.49-.647 7.974-.431 1.485-1.256 2.917-2.472 4.298-1.217 1.381-2.62 2.404-4.208 3.068-1.587.665-3.434.997-5.54.997-2.762 0-5.165-.634-7.21-1.903-2.046-1.269-3.508-2.856-4.389-4.764-.88-1.907-1.32-5.13-1.32-9.67zM80.854.958h7.69c4.211 0 7.21.375 8.996 1.126 1.787.751 3.224 1.998 4.311 3.741 1.087 1.743 1.631 3.806 1.631 6.188 0 2.503-.6 4.595-1.8 6.278-1.199 1.683-3.007 2.956-5.423 3.819l9.01 16.932h-7.923l-8.57-16.13h-.672v16.13h-7.25zm7.25 14.887h2.278c2.313 0 3.905-.302 4.777-.907.871-.604 1.307-1.605 1.307-3.003 0-.828-.216-1.549-.647-2.162a3.586 3.586 0 00-1.735-1.32c-.725-.267-2.054-.401-3.987-.401h-1.993z" style="line-height:125%" font-size="53.023" font-weight="400" letter-spacing="0" word-spacing="0" font-family="Sans"/><path d="M27.107 20.022a7.16 7.16 0 11-14.319 0 7.16 7.16 0 0114.319 0z"/></g></svg>